# xmcd
#
# Track frame offsets: 
#        150
#        22968
#        45080
#        65040
#        87059
#        109614
#        139748
#        159553
#        182275
#        204138
#        226505
#        252743
#        285569
#
# Disc length: 4121 seconds
#
# Revision: 0
# Processed by: cddbd v1.5.2PL0 Copyright (c) Steve Scherf et al.
# Submitted via: ExactAudioCopy v1.0b1
#
DISCID=9a10170d
DTITLE=Tran Thu Ha - Tinh Ca Qua The Ky
DYEAR=2007
DGENRE=Pop
TTITLE0=01 Kiep da trang
TTITLE1=02 Tro ve ben mo
TTITLE2=03 Dung xa em dem nay
TTITLE3=04 Toi voi troi bo vo
TTITLE4=05 Vet lan tram
TTITLE5=06 Nhung con duong tinh yeu
TTITLE6=07 Que huong trong noi nho
TTITLE7=08 Roi nhu da ngay ngo
TTITLE8=09 Giot le thien thu
TTITLE9=10 Tinh nghe sy
TTITLE10=11 Gui nguoi em gai
TTITLE11=12 Co don
TTITLE12=13 Duong xa uot mua
EXTD=
EXTT0=
EXTT1=
EXTT2=
EXTT3=
EXTT4=
EXTT5=
EXTT6=
EXTT7=
EXTT8=
EXTT9=
EXTT10=
EXTT11=
EXTT12=
PLAYORDER=
